<svg xmlns="http://www.w3.org/2000/svg" width="40.273" height="40.274" viewBox="0 0 40.273 40.274">
  <g id="telephone" transform="translate(-0.052)">
    <g id="Group_100" data-name="Group 100" transform="translate(0.052)">
      <path id="Path_172" data-name="Path 172" d="M30.67,68.913a2.822,2.822,0,0,0-4.266,0c-1,.989-1.995,1.978-2.975,2.983a.588.588,0,0,1-.821.151c-.645-.352-1.333-.637-1.953-1.022A30.939,30.939,0,0,1,13.2,64.236a17.671,17.671,0,0,1-2.673-4.282.613.613,0,0,1,.151-.788c1-.964,1.969-1.953,2.95-2.942a2.833,2.833,0,0,0-.008-4.366c-.779-.788-1.559-1.559-2.338-2.347-.8-.8-1.6-1.617-2.414-2.414a2.84,2.84,0,0,0-4.266.008c-1.006.989-1.969,2-2.992,2.975A4.856,4.856,0,0,0,.081,53.358a13.883,13.883,0,0,0,1.073,5.975A36.31,36.31,0,0,0,7.6,70.069,39.881,39.881,0,0,0,20.806,80.4a19.1,19.1,0,0,0,7.316,2.129,5.362,5.362,0,0,0,4.6-1.752c.855-.955,1.819-1.827,2.724-2.74a2.851,2.851,0,0,0,.017-4.341Q33.075,71.3,30.67,68.913Z" transform="translate(-0.052 -42.271)" fill="#7187ae"/>
      <path id="Path_173" data-name="Path 173" d="M246.985,107.917l3.092-.528A13.881,13.881,0,0,0,238.336,96l-.436,3.109a10.728,10.728,0,0,1,9.085,8.808Z" transform="translate(-217.967 -87.955)" fill="#7187ae"/>
      <path id="Path_174" data-name="Path 174" d="M256.31,6.52A22.8,22.8,0,0,0,243.236,0L242.8,3.109a19.9,19.9,0,0,1,16.837,16.317l3.092-.528A22.969,22.969,0,0,0,256.31,6.52Z" transform="translate(-222.456)" fill="#7187ae"/>
    </g>
  </g>
</svg>
